<?xml version="1.0" encoding="UTF-8" standalone="no"?>
<!DOCTYPE svg PUBLIC "-//W3C//DTD SVG 1.1//EN"
 "http://www.w3.org/Graphics/SVG/1.1/DTD/svg11.dtd">
<!-- Generated by graphviz version 2.36.0 (20140111.2315)
 -->
<!-- Title: %3 Pages: 1 -->
<svg width="8048pt" height="1984pt"
 viewBox="0.00 0.00 8048.00 1984.00" xmlns="http://www.w3.org/2000/svg" xmlns:xlink="http://www.w3.org/1999/xlink">
<g id="graph0" class="graph" transform="scale(1 1) rotate(0) translate(4 1980)">
<title>%3</title>
<polygon fill="white" stroke="none" points="-4,4 -4,-1980 8044,-1980 8044,4 -4,4"/>
<!-- 8 -->
<g id="node1" class="node"><title>8</title>
<ellipse fill="none" stroke="black" cx="7539" cy="-1588" rx="18" ry="18"/>
<text text-anchor="middle" x="7539" y="-1583.8" font-family="Times,serif" font-size="14.00">=</text>
</g>
<!-- 23 -->
<g id="node62" class="node"><title>23</title>
<polygon fill="none" stroke="black" points="8040.17,-1532 7037.83,-1532 7037.83,-1496 8040.17,-1496 8040.17,-1532"/>
<text text-anchor="middle" x="7539" y="-1509.8" font-family="Times,serif" font-size="14.00">VarBox[32] &#160;in Node: &lt; Primordial, Ljava/util/Locale, toNewString(Ljava/lang/String;Ljava/lang/String;Ljava/lang/String;)Ljava/lang/String; &gt; Context: Everywhere of Locale</text>
</g>
<!-- 8&#45;&gt;23 -->
<g id="edge10" class="edge"><title>8&#45;&gt;23</title>
<path fill="none" stroke="black" d="M7539,-1569.94C7539,-1561.81 7539,-1551.88 7539,-1542.7"/>
<polygon fill="black" stroke="black" points="7542.5,-1542.44 7539,-1532.44 7535.5,-1542.44 7542.5,-1542.44"/>
</g>
<!-- 53 -->
<g id="node2" class="node"><title>53</title>
<polygon fill="none" stroke="black" points="3976.42,-1176 2977.58,-1176 2977.58,-1140 3976.42,-1140 3976.42,-1176"/>
<text text-anchor="middle" x="3477" y="-1153.8" font-family="Times,serif" font-size="14.00">VarBox[10] &#160;in Node: &lt; Application, Lcom/adobe/libs/services/auth/SVServicesAccount, getActiveClientID()Ljava/lang/String; &gt; Context: Everywhere of SVServicesAccount</text>
</g>
<!-- 54 -->
<g id="node9" class="node"><title>54</title>
<ellipse fill="none" stroke="black" cx="4495" cy="-1054" rx="23.2996" ry="23.7293"/>
<text text-anchor="middle" x="4495" y="-1049.8" font-family="Times,serif" font-size="14.00">join</text>
</g>
<!-- 53&#45;&gt;54 -->
<g id="edge57" class="edge"><title>53&#45;&gt;54</title>
<path fill="none" stroke="black" d="M3646.82,-1139.98C3893.9,-1115.23 4336.67,-1070.86 4461.45,-1058.36"/>
<polygon fill="black" stroke="black" points="4461.93,-1061.83 4471.54,-1057.35 4461.24,-1054.87 4461.93,-1061.83"/>
<text text-anchor="middle" x="3959.5" y="-1110.8" font-family="Times,serif" font-size="14.00">2</text>
</g>
<!-- 56 -->
<g id="node3" class="node"><title>56</title>
<polygon fill="none" stroke="black" points="4994.42,-1176 3995.58,-1176 3995.58,-1140 4994.42,-1140 4994.42,-1176"/>
<text text-anchor="middle" x="4495" y="-1153.8" font-family="Times,serif" font-size="14.00">VarBox[14] &#160;in Node: &lt; Application, Lcom/adobe/libs/services/auth/SVServicesAccount, getActiveClientID()Ljava/lang/String; &gt; Context: Everywhere of SVServicesAccount</text>
</g>
<!-- 56&#45;&gt;54 -->
<g id="edge60" class="edge"><title>56&#45;&gt;54</title>
<path fill="none" stroke="black" d="M4495,-1139.7C4495,-1125.67 4495,-1105.49 4495,-1088.34"/>
<polygon fill="black" stroke="black" points="4498.5,-1088.14 4495,-1078.14 4491.5,-1088.14 4498.5,-1088.14"/>
<text text-anchor="middle" x="4498.5" y="-1110.8" font-family="Times,serif" font-size="14.00">3</text>
</g>
<!-- 57 -->
<g id="node4" class="node"><title>57</title>
<polygon fill="none" stroke="black" points="4994.42,-968 3995.58,-968 3995.58,-932 4994.42,-932 4994.42,-968"/>
<text text-anchor="middle" x="4495" y="-945.8" font-family="Times,serif" font-size="14.00">VarBox[15] &#160;in Node: &lt; Application, Lcom/adobe/libs/services/auth/SVServicesAccount, getActiveClientID()Ljava/lang/String; &gt; Context: Everywhere of SVServicesAccount</text>
</g>
<!-- 52 -->
<g id="node46" class="node"><title>52</title>
<ellipse fill="none" stroke="black" cx="4495" cy="-846" rx="18" ry="18"/>
<text text-anchor="middle" x="4495" y="-841.8" font-family="Times,serif" font-size="14.00">=</text>
</g>
<!-- 57&#45;&gt;52 -->
<g id="edge61" class="edge"><title>57&#45;&gt;52</title>
<path fill="none" stroke="black" d="M4495,-931.697C4495,-915.923 4495,-892.364 4495,-874.094"/>
<polygon fill="black" stroke="black" points="4498.5,-874.047 4495,-864.047 4491.5,-874.047 4498.5,-874.047"/>
</g>
<!-- 59 -->
<g id="node5" class="node"><title>59</title>
<polygon fill="none" stroke="black" points="6012.42,-1176 5013.58,-1176 5013.58,-1140 6012.42,-1140 6012.42,-1176"/>
<text text-anchor="middle" x="5513" y="-1153.8" font-family="Times,serif" font-size="14.00">VarBox[13] &#160;in Node: &lt; Application, Lcom/adobe/libs/services/auth/SVServicesAccount, getActiveClientID()Ljava/lang/String; &gt; Context: Everywhere of SVServicesAccount</text>
</g>
<!-- 59&#45;&gt;54 -->
<g id="edge63" class="edge"><title>59&#45;&gt;54</title>
<path fill="none" stroke="black" d="M5343.18,-1139.98C5096.1,-1115.23 4653.33,-1070.86 4528.55,-1058.36"/>
<polygon fill="black" stroke="black" points="4528.76,-1054.87 4518.46,-1057.35 4528.07,-1061.83 4528.76,-1054.87"/>
<text text-anchor="middle" x="5158.5" y="-1110.8" font-family="Times,serif" font-size="14.00">1</text>
</g>
<!-- 63 -->
<g id="node6" class="node"><title>63</title>
<polygon fill="none" stroke="black" points="4260.05,-1680 3707.95,-1680 3707.95,-1644 4260.05,-1644 4260.05,-1680"/>
<text text-anchor="middle" x="3984" y="-1657.8" font-family="Times,serif" font-size="14.00">ConstBox[value: ReaderMobileAndroidTest4_0001, type: String] declared in getLatestClientID</text>
</g>
<!-- 55 -->
<g id="node30" class="node"><title>55</title>
<ellipse fill="none" stroke="black" cx="3984" cy="-1588" rx="18" ry="18"/>
<text text-anchor="middle" x="3984" y="-1583.8" font-family="Times,serif" font-size="14.00">=</text>
</g>
<!-- 63&#45;&gt;55 -->
<g id="edge67" class="edge"><title>63&#45;&gt;55</title>
<path fill="none" stroke="black" d="M3984,-1643.94C3984,-1635.81 3984,-1625.88 3984,-1616.7"/>
<polygon fill="black" stroke="black" points="3987.5,-1616.44 3984,-1606.44 3980.5,-1616.44 3987.5,-1616.44"/>
</g>
<!-- 13 -->
<g id="node7" class="node"><title>13</title>
<ellipse fill="none" stroke="black" cx="2675" cy="-1054" rx="18" ry="18"/>
<text text-anchor="middle" x="2675" y="-1049.8" font-family="Times,serif" font-size="14.00">=</text>
</g>
<!-- 14 -->
<g id="node20" class="node"><title>14</title>
<polygon fill="none" stroke="black" points="3219.22,-968 2210.78,-968 2210.78,-932 3219.22,-932 3219.22,-968"/>
<text text-anchor="middle" x="2715" y="-945.8" font-family="Times,serif" font-size="14.00">VarBox[31] &#160;in Node: &lt; Application, Lcom/adobe/libs/services/SVServicesBaseWebView, showIMSAuthenticationPage()V &gt; Context: Everywhere of SVServicesBaseWebView</text>
</g>
<!-- 13&#45;&gt;14 -->
<g id="edge15" class="edge"><title>13&#45;&gt;14</title>
<path fill="none" stroke="black" d="M2681.25,-1037.06C2687.47,-1021.2 2697.13,-996.565 2704.53,-977.709"/>
<polygon fill="black" stroke="black" points="2707.87,-978.775 2708.26,-968.188 2701.35,-976.219 2707.87,-978.775"/>
</g>
<!-- 35 -->
<g id="node8" class="node"><title>35</title>
<polygon fill="none" stroke="black" points="6682.12,-1976 6355.88,-1976 6355.88,-1940 6682.12,-1940 6682.12,-1976"/>
<text text-anchor="middle" x="6519" y="-1953.8" font-family="Times,serif" font-size="14.00">ConstBox[value: 11, type: int] declared in toNewString</text>
</g>
<!-- 36 -->
<g id="node61" class="node"><title>36</title>
<ellipse fill="none" stroke="black" cx="6519" cy="-1884" rx="18" ry="18"/>
<text text-anchor="middle" x="6519" y="-1879.8" font-family="Times,serif" font-size="14.00">=</text>
</g>
<!-- 35&#45;&gt;36 -->
<g id="edge39" class="edge"><title>35&#45;&gt;36</title>
<path fill="none" stroke="black" d="M6519,-1939.94C6519,-1931.81 6519,-1921.88 6519,-1912.7"/>
<polygon fill="black" stroke="black" points="6522.5,-1912.44 6519,-1902.44 6515.5,-1912.44 6522.5,-1912.44"/>
</g>
<!-- 54&#45;&gt;57 -->
<g id="edge58" class="edge"><title>54&#45;&gt;57</title>
<path fill="none" stroke="black" d="M4495,-1030.11C4495,-1014.84 4495,-994.676 4495,-978.529"/>
<polygon fill="black" stroke="black" points="4498.5,-978.101 4495,-968.101 4491.5,-978.101 4498.5,-978.101"/>
</g>
<!-- 38 -->
<g id="node10" class="node"><title>38</title>
<ellipse fill="none" stroke="black" cx="3853" cy="-454" rx="35.4654" ry="35.7887"/>
<text text-anchor="middle" x="3853" y="-449.8" font-family="Times,serif" font-size="14.00">append</text>
</g>
<!-- 40 -->
<g id="node25" class="node"><title>40</title>
<polygon fill="none" stroke="black" points="4475.22,-380 3466.78,-380 3466.78,-344 4475.22,-344 4475.22,-380"/>
<text text-anchor="middle" x="3971" y="-357.8" font-family="Times,serif" font-size="14.00">VarBox[42] &#160;in Node: &lt; Application, Lcom/adobe/libs/services/SVServicesBaseWebView, showIMSAuthenticationPage()V &gt; Context: Everywhere of SVServicesBaseWebView</text>
</g>
<!-- 38&#45;&gt;40 -->
<g id="edge42" class="edge"><title>38&#45;&gt;40</title>
<path fill="none" stroke="black" d="M3880.96,-431.671C3898.81,-418.058 3921.96,-400.404 3940.31,-386.405"/>
<polygon fill="black" stroke="black" points="3942.54,-389.106 3948.37,-380.258 3938.3,-383.54 3942.54,-389.106"/>
</g>
<!-- 48 -->
<g id="node11" class="node"><title>48</title>
<polygon fill="none" stroke="black" points="3233.21,-1680 2704.79,-1680 2704.79,-1644 3233.21,-1644 3233.21,-1680"/>
<text text-anchor="middle" x="2969" y="-1657.8" font-family="Times,serif" font-size="14.00">ConstBox[value: ReaderMobileAndroid4_0001, type: String] declared in getLatestClientID</text>
</g>
<!-- 11 -->
<g id="node57" class="node"><title>11</title>
<ellipse fill="none" stroke="black" cx="2969" cy="-1588" rx="18" ry="18"/>
<text text-anchor="middle" x="2969" y="-1583.8" font-family="Times,serif" font-size="14.00">=</text>
</g>
<!-- 48&#45;&gt;11 -->
<g id="edge52" class="edge"><title>48&#45;&gt;11</title>
<path fill="none" stroke="black" d="M2969,-1643.94C2969,-1635.81 2969,-1625.88 2969,-1616.7"/>
<polygon fill="black" stroke="black" points="2972.5,-1616.44 2969,-1606.44 2965.5,-1616.44 2972.5,-1616.44"/>
</g>
<!-- 41 -->
<g id="node12" class="node"><title>41</title>
<ellipse fill="none" stroke="black" cx="4613" cy="-258" rx="35.4654" ry="35.7887"/>
<text text-anchor="middle" x="4613" y="-253.8" font-family="Times,serif" font-size="14.00">append</text>
</g>
<!-- 44 -->
<g id="node26" class="node"><title>44</title>
<polygon fill="none" stroke="black" points="5117.22,-184 4108.78,-184 4108.78,-148 5117.22,-148 5117.22,-184"/>
<text text-anchor="middle" x="4613" y="-161.8" font-family="Times,serif" font-size="14.00">VarBox[44] &#160;in Node: &lt; Application, Lcom/adobe/libs/services/SVServicesBaseWebView, showIMSAuthenticationPage()V &gt; Context: Everywhere of SVServicesBaseWebView</text>
</g>
<!-- 41&#45;&gt;44 -->
<g id="edge45" class="edge"><title>41&#45;&gt;44</title>
<path fill="none" stroke="black" d="M4613,-222.204C4613,-212.92 4613,-203.024 4613,-194.213"/>
<polygon fill="black" stroke="black" points="4616.5,-194.117 4613,-184.117 4609.5,-194.117 4616.5,-194.117"/>
</g>
<!-- 65 -->
<g id="node13" class="node"><title>65</title>
<ellipse fill="none" stroke="black" cx="6519" cy="-1736" rx="18" ry="18"/>
<text text-anchor="middle" x="6519" y="-1731.8" font-family="Times,serif" font-size="14.00">=</text>
</g>
<!-- 66 -->
<g id="node65" class="node"><title>66</title>
<polygon fill="none" stroke="black" points="7020.17,-1680 6017.83,-1680 6017.83,-1644 7020.17,-1644 7020.17,-1680"/>
<text text-anchor="middle" x="6519" y="-1657.8" font-family="Times,serif" font-size="14.00">VarBox[10] &#160;in Node: &lt; Primordial, Ljava/util/Locale, toNewString(Ljava/lang/String;Ljava/lang/String;Ljava/lang/String;)Ljava/lang/String; &gt; Context: Everywhere of Locale</text>
</g>
<!-- 65&#45;&gt;66 -->
<g id="edge69" class="edge"><title>65&#45;&gt;66</title>
<path fill="none" stroke="black" d="M6519,-1717.94C6519,-1709.81 6519,-1699.88 6519,-1690.7"/>
<polygon fill="black" stroke="black" points="6522.5,-1690.44 6519,-1680.44 6515.5,-1690.44 6522.5,-1690.44"/>
</g>
<!-- 1 -->
<g id="node14" class="node"><title>1</title>
<polygon fill="none" stroke="red" points="5117.22,-36 4108.78,-36 4108.78,-0 5117.22,-0 5117.22,-36"/>
<text text-anchor="middle" x="4613" y="-13.8" font-family="Times,serif" font-size="14.00">VarBox[46] &#160;in Node: &lt; Application, Lcom/adobe/libs/services/SVServicesBaseWebView, showIMSAuthenticationPage()V &gt; Context: Everywhere of SVServicesBaseWebView</text>
</g>
<!-- 3 -->
<g id="node15" class="node"><title>3</title>
<ellipse fill="none" stroke="black" cx="6563" cy="-650" rx="23.2996" ry="23.7293"/>
<text text-anchor="middle" x="6563" y="-645.8" font-family="Times,serif" font-size="14.00">join</text>
</g>
<!-- 9 -->
<g id="node17" class="node"><title>9</title>
<polygon fill="none" stroke="black" points="6050.13,-576 5379.87,-576 5379.87,-540 6050.13,-540 6050.13,-576"/>
<text text-anchor="middle" x="5715" y="-553.8" font-family="Times,serif" font-size="14.00">VarBox[10] &#160;in Node: &lt; Primordial, Ljava/util/Locale, toString()Ljava/lang/String; &gt; Context: Everywhere of Locale</text>
</g>
<!-- 3&#45;&gt;9 -->
<g id="edge5" class="edge"><title>3&#45;&gt;9</title>
<path fill="none" stroke="black" d="M6539.43,-646.499C6446.29,-636.613 6098.49,-599.7 5885.51,-577.097"/>
<polygon fill="black" stroke="black" points="5885.79,-573.606 5875.47,-576.031 5885.05,-580.567 5885.79,-573.606"/>
</g>
<!-- 2 -->
<g id="node16" class="node"><title>2</title>
<polygon fill="none" stroke="black" points="7359.38,-1360 6696.62,-1360 6696.62,-1324 7359.38,-1324 7359.38,-1360"/>
<text text-anchor="middle" x="7028" y="-1337.8" font-family="Times,serif" font-size="14.00">VarBox[9] &#160;in Node: &lt; Primordial, Ljava/util/Locale, toString()Ljava/lang/String; &gt; Context: Everywhere of Locale</text>
</g>
<!-- 2&#45;&gt;3 -->
<g id="edge1" class="edge"><title>2&#45;&gt;3</title>
<path fill="none" stroke="black" d="M7047.3,-1323.74C7063.83,-1306.96 7085,-1279.85 7085,-1251 7085,-1251 7085,-1251 7085,-753 7085,-653.047 6711.69,-649.202 6596.46,-650.396"/>
<polygon fill="black" stroke="black" points="6596.4,-646.897 6586.44,-650.52 6596.49,-653.896 6596.4,-646.897"/>
<text text-anchor="middle" x="7088.5" y="-988.8" font-family="Times,serif" font-size="14.00">2</text>
</g>
<!-- 5 -->
<g id="node33" class="node"><title>5</title>
<ellipse fill="none" stroke="black" cx="6563" cy="-846" rx="23.2996" ry="23.7293"/>
<text text-anchor="middle" x="6563" y="-841.8" font-family="Times,serif" font-size="14.00">join</text>
</g>
<!-- 2&#45;&gt;5 -->
<g id="edge3" class="edge"><title>2&#45;&gt;5</title>
<path fill="none" stroke="black" d="M7033.8,-1323.97C7039.39,-1306.04 7047,-1276.87 7047,-1251 7047,-1251 7047,-1251 7047,-949 7047,-856.856 6706.87,-847.52 6596.87,-846.911"/>
<polygon fill="black" stroke="black" points="6596.68,-843.41 6586.67,-846.876 6596.66,-850.41 6596.68,-843.41"/>
<text text-anchor="middle" x="7050.5" y="-1110.8" font-family="Times,serif" font-size="14.00">2</text>
</g>
<!-- 4 -->
<g id="node38" class="node"><title>4</title>
<ellipse fill="none" stroke="black" cx="6525" cy="-1250" rx="23.2996" ry="23.7293"/>
<text text-anchor="middle" x="6525" y="-1245.8" font-family="Times,serif" font-size="14.00">join</text>
</g>
<!-- 2&#45;&gt;4 -->
<g id="edge2" class="edge"><title>2&#45;&gt;4</title>
<path fill="none" stroke="black" d="M6932.8,-1323.97C6818.78,-1303.57 6633.77,-1270.46 6558.47,-1256.99"/>
<polygon fill="black" stroke="black" points="6558.64,-1253.46 6548.18,-1255.15 6557.41,-1260.35 6558.64,-1253.46"/>
<text text-anchor="middle" x="6824.5" y="-1294.8" font-family="Times,serif" font-size="14.00">2</text>
</g>
<!-- 6 -->
<g id="node54" class="node"><title>6</title>
<ellipse fill="none" stroke="black" cx="6563" cy="-1054" rx="23.2996" ry="23.7293"/>
<text text-anchor="middle" x="6563" y="-1049.8" font-family="Times,serif" font-size="14.00">join</text>
</g>
<!-- 2&#45;&gt;6 -->
<g id="edge4" class="edge"><title>2&#45;&gt;6</title>
<path fill="none" stroke="black" d="M7027.16,-1323.97C7024.66,-1280.3 7015.74,-1165.99 6990,-1140 6934.68,-1084.14 6687.34,-1062.94 6596.55,-1056.95"/>
<polygon fill="black" stroke="black" points="6596.73,-1053.46 6586.53,-1056.31 6596.28,-1060.44 6596.73,-1053.46"/>
<text text-anchor="middle" x="7017.5" y="-1196.8" font-family="Times,serif" font-size="14.00">1</text>
</g>
<!-- 10 -->
<g id="node52" class="node"><title>10</title>
<ellipse fill="none" stroke="black" cx="5085" cy="-454" rx="18" ry="18"/>
<text text-anchor="middle" x="5085" y="-449.8" font-family="Times,serif" font-size="14.00">=</text>
</g>
<!-- 9&#45;&gt;10 -->
<g id="edge11" class="edge"><title>9&#45;&gt;10</title>
<path fill="none" stroke="black" d="M5609.91,-539.985C5461.51,-515.96 5199.06,-473.468 5113.11,-459.551"/>
<polygon fill="black" stroke="black" points="5113.51,-456.07 5103.07,-457.926 5112.39,-462.98 5113.51,-456.07"/>
</g>
<!-- 21 -->
<g id="node18" class="node"><title>21</title>
<polygon fill="none" stroke="black" points="6894.38,-772 6231.62,-772 6231.62,-736 6894.38,-736 6894.38,-772"/>
<text text-anchor="middle" x="6563" y="-749.8" font-family="Times,serif" font-size="14.00">VarBox[3] &#160;in Node: &lt; Primordial, Ljava/util/Locale, toString()Ljava/lang/String; &gt; Context: Everywhere of Locale</text>
</g>
<!-- 21&#45;&gt;3 -->
<g id="edge24" class="edge"><title>21&#45;&gt;3</title>
<path fill="none" stroke="black" d="M6563,-735.697C6563,-721.671 6563,-701.489 6563,-684.344"/>
<polygon fill="black" stroke="black" points="6566.5,-684.143 6563,-674.143 6559.5,-684.143 6566.5,-684.143"/>
<text text-anchor="middle" x="6566.5" y="-706.8" font-family="Times,serif" font-size="14.00">1</text>
</g>
<!-- 29 -->
<g id="node19" class="node"><title>29</title>
<polygon fill="none" stroke="black" points="2191.22,-968 1182.78,-968 1182.78,-932 2191.22,-932 2191.22,-968"/>
<text text-anchor="middle" x="1687" y="-945.8" font-family="Times,serif" font-size="14.00">VarBox[30] &#160;in Node: &lt; Application, Lcom/adobe/libs/services/SVServicesBaseWebView, showIMSAuthenticationPage()V &gt; Context: Everywhere of SVServicesBaseWebView</text>
</g>
<!-- 30 -->
<g id="node34" class="node"><title>30</title>
<ellipse fill="none" stroke="black" cx="2715" cy="-846" rx="35.4654" ry="35.7887"/>
<text text-anchor="middle" x="2715" y="-841.8" font-family="Times,serif" font-size="14.00">append</text>
</g>
<!-- 29&#45;&gt;30 -->
<g id="edge33" class="edge"><title>29&#45;&gt;30</title>
<path fill="none" stroke="black" d="M1858.49,-931.985C2100.67,-907.955 2529.04,-865.451 2669.21,-851.543"/>
<polygon fill="black" stroke="black" points="2669.97,-854.986 2679.57,-850.515 2669.27,-848.02 2669.97,-854.986"/>
<text text-anchor="middle" x="2174.5" y="-902.8" font-family="Times,serif" font-size="14.00">1</text>
</g>
<!-- 14&#45;&gt;30 -->
<g id="edge16" class="edge"><title>14&#45;&gt;30</title>
<path fill="none" stroke="black" d="M2715,-931.697C2715,-920.72 2715,-905.974 2715,-891.863"/>
<polygon fill="black" stroke="black" points="2718.5,-891.764 2715,-881.764 2711.5,-891.764 2718.5,-891.764"/>
<text text-anchor="middle" x="2718.5" y="-902.8" font-family="Times,serif" font-size="14.00">2</text>
</g>
<!-- 32 -->
<g id="node21" class="node"><title>32</title>
<polygon fill="none" stroke="black" points="3971.22,-772 2962.78,-772 2962.78,-736 3971.22,-736 3971.22,-772"/>
<text text-anchor="middle" x="3467" y="-749.8" font-family="Times,serif" font-size="14.00">VarBox[33] &#160;in Node: &lt; Application, Lcom/adobe/libs/services/SVServicesBaseWebView, showIMSAuthenticationPage()V &gt; Context: Everywhere of SVServicesBaseWebView</text>
</g>
<!-- 33 -->
<g id="node40" class="node"><title>33</title>
<ellipse fill="none" stroke="black" cx="3853" cy="-650" rx="35.4654" ry="35.7887"/>
<text text-anchor="middle" x="3853" y="-645.8" font-family="Times,serif" font-size="14.00">append</text>
</g>
<!-- 32&#45;&gt;33 -->
<g id="edge36" class="edge"><title>32&#45;&gt;33</title>
<path fill="none" stroke="black" d="M3531.61,-735.927C3610.3,-715.132 3741.12,-680.564 3809.04,-662.616"/>
<polygon fill="black" stroke="black" points="3810.22,-665.926 3818.99,-659.987 3808.43,-659.158 3810.22,-665.926"/>
<text text-anchor="middle" x="3652.5" y="-706.8" font-family="Times,serif" font-size="14.00">1</text>
</g>
<!-- 34 -->
<g id="node22" class="node"><title>34</title>
<polygon fill="none" stroke="black" points="4999.22,-772 3990.78,-772 3990.78,-736 4999.22,-736 4999.22,-772"/>
<text text-anchor="middle" x="4495" y="-749.8" font-family="Times,serif" font-size="14.00">VarBox[37] &#160;in Node: &lt; Application, Lcom/adobe/libs/services/SVServicesBaseWebView, showIMSAuthenticationPage()V &gt; Context: Everywhere of SVServicesBaseWebView</text>
</g>
<!-- 34&#45;&gt;33 -->
<g id="edge38" class="edge"><title>34&#45;&gt;33</title>
<path fill="none" stroke="black" d="M4387.91,-735.985C4245.26,-713.321 3999.18,-674.225 3898.22,-658.184"/>
<polygon fill="black" stroke="black" points="3898.48,-654.682 3888.06,-656.57 3897.38,-661.595 3898.48,-654.682"/>
<text text-anchor="middle" x="4273.5" y="-706.8" font-family="Times,serif" font-size="14.00">2</text>
</g>
<!-- 37 -->
<g id="node23" class="node"><title>37</title>
<polygon fill="none" stroke="black" points="4357.22,-576 3348.78,-576 3348.78,-540 4357.22,-540 4357.22,-576"/>
<text text-anchor="middle" x="3853" y="-553.8" font-family="Times,serif" font-size="14.00">VarBox[39] &#160;in Node: &lt; Application, Lcom/adobe/libs/services/SVServicesBaseWebView, showIMSAuthenticationPage()V &gt; Context: Everywhere of SVServicesBaseWebView</text>
</g>
<!-- 37&#45;&gt;38 -->
<g id="edge41" class="edge"><title>37&#45;&gt;38</title>
<path fill="none" stroke="black" d="M3853,-539.697C3853,-528.72 3853,-513.974 3853,-499.863"/>
<polygon fill="black" stroke="black" points="3856.5,-499.764 3853,-489.764 3849.5,-499.764 3856.5,-499.764"/>
<text text-anchor="middle" x="3856.5" y="-510.8" font-family="Times,serif" font-size="14.00">1</text>
</g>
<!-- 39 -->
<g id="node24" class="node"><title>39</title>
<polygon fill="none" stroke="black" points="3302.22,-576 2293.78,-576 2293.78,-540 3302.22,-540 3302.22,-576"/>
<text text-anchor="middle" x="2798" y="-553.8" font-family="Times,serif" font-size="14.00">VarBox[40] &#160;in Node: &lt; Application, Lcom/adobe/libs/services/SVServicesBaseWebView, showIMSAuthenticationPage()V &gt; Context: Everywhere of SVServicesBaseWebView</text>
</g>
<!-- 39&#45;&gt;38 -->
<g id="edge43" class="edge"><title>39&#45;&gt;38</title>
<path fill="none" stroke="black" d="M2973.99,-539.985C3223.36,-515.875 3665.07,-473.17 3807.42,-459.406"/>
<polygon fill="black" stroke="black" points="3807.93,-462.874 3817.54,-458.428 3807.25,-455.907 3807.93,-462.874"/>
<text text-anchor="middle" x="3297.5" y="-510.8" font-family="Times,serif" font-size="14.00">2</text>
</g>
<!-- 40&#45;&gt;41 -->
<g id="edge44" class="edge"><title>40&#45;&gt;41</title>
<path fill="none" stroke="black" d="M4078.09,-343.985C4220.74,-321.321 4466.82,-282.225 4567.78,-266.184"/>
<polygon fill="black" stroke="black" points="4568.62,-269.595 4577.94,-264.57 4567.52,-262.682 4568.62,-269.595"/>
<text text-anchor="middle" x="4276.5" y="-314.8" font-family="Times,serif" font-size="14.00">1</text>
</g>
<!-- 45 -->
<g id="node50" class="node"><title>45</title>
<ellipse fill="none" stroke="black" cx="4613" cy="-92" rx="18" ry="18"/>
<text text-anchor="middle" x="4613" y="-87.8" font-family="Times,serif" font-size="14.00">=</text>
</g>
<!-- 44&#45;&gt;45 -->
<g id="edge48" class="edge"><title>44&#45;&gt;45</title>
<path fill="none" stroke="black" d="M4613,-147.937C4613,-139.807 4613,-129.876 4613,-120.705"/>
<polygon fill="black" stroke="black" points="4616.5,-120.441 4613,-110.441 4609.5,-120.441 4616.5,-120.441"/>
</g>
<!-- 47 -->
<g id="node27" class="node"><title>47</title>
<polygon fill="none" stroke="black" points="1223.22,-1176 214.782,-1176 214.782,-1140 1223.22,-1140 1223.22,-1176"/>
<text text-anchor="middle" x="719" y="-1153.8" font-family="Times,serif" font-size="14.00">VarBox[22] &#160;in Node: &lt; Application, Lcom/adobe/libs/services/SVServicesBaseWebView, showIMSAuthenticationPage()V &gt; Context: Everywhere of SVServicesBaseWebView</text>
</g>
<!-- 50 -->
<g id="node51" class="node"><title>50</title>
<ellipse fill="none" stroke="black" cx="1687" cy="-1054" rx="35.4654" ry="35.7887"/>
<text text-anchor="middle" x="1687" y="-1049.8" font-family="Times,serif" font-size="14.00">append</text>
</g>
<!-- 47&#45;&gt;50 -->
<g id="edge51" class="edge"><title>47&#45;&gt;50</title>
<path fill="none" stroke="black" d="M880.476,-1139.98C1107.25,-1116.09 1507.39,-1073.93 1641.64,-1059.78"/>
<polygon fill="black" stroke="black" points="1642.38,-1063.22 1651.96,-1058.69 1641.65,-1056.26 1642.38,-1063.22"/>
<text text-anchor="middle" x="1177.5" y="-1110.8" font-family="Times,serif" font-size="14.00">2</text>
</g>
<!-- 51 -->
<g id="node28" class="node"><title>51</title>
<polygon fill="none" stroke="black" points="5510.22,-380 4501.78,-380 4501.78,-344 5510.22,-344 5510.22,-380"/>
<text text-anchor="middle" x="5006" y="-357.8" font-family="Times,serif" font-size="14.00">VarBox[26] &#160;in Node: &lt; Application, Lcom/adobe/libs/services/SVServicesBaseWebView, showIMSAuthenticationPage()V &gt; Context: Everywhere of SVServicesBaseWebView</text>
</g>
<!-- 51&#45;&gt;41 -->
<g id="edge55" class="edge"><title>51&#45;&gt;41</title>
<path fill="none" stroke="black" d="M4940.22,-343.927C4859.89,-323.078 4726.22,-288.385 4657.22,-270.477"/>
<polygon fill="black" stroke="black" points="4657.68,-266.98 4647.12,-267.856 4655.92,-273.756 4657.68,-266.98"/>
<text text-anchor="middle" x="4871.5" y="-314.8" font-family="Times,serif" font-size="14.00">2</text>
</g>
<!-- 31 -->
<g id="node29" class="node"><title>31</title>
<polygon fill="none" stroke="black" points="2251.22,-1176 1242.78,-1176 1242.78,-1140 2251.22,-1140 2251.22,-1176"/>
<text text-anchor="middle" x="1747" y="-1153.8" font-family="Times,serif" font-size="14.00">VarBox[27] &#160;in Node: &lt; Application, Lcom/adobe/libs/services/SVServicesBaseWebView, showIMSAuthenticationPage()V &gt; Context: Everywhere of SVServicesBaseWebView</text>
</g>
<!-- 31&#45;&gt;50 -->
<g id="edge35" class="edge"><title>31&#45;&gt;50</title>
<path fill="none" stroke="black" d="M1736.82,-1139.7C1729.5,-1127.25 1719.32,-1109.95 1710.08,-1094.23"/>
<polygon fill="black" stroke="black" points="1712.86,-1092.05 1704.77,-1085.21 1706.82,-1095.6 1712.86,-1092.05"/>
<text text-anchor="middle" x="1729.5" y="-1110.8" font-family="Times,serif" font-size="14.00">1</text>
</g>
<!-- 28 -->
<g id="node60" class="node"><title>28</title>
<polygon fill="none" stroke="black" points="4482.21,-1532 3485.79,-1532 3485.79,-1496 4482.21,-1496 4482.21,-1532"/>
<text text-anchor="middle" x="3984" y="-1509.8" font-family="Times,serif" font-size="14.00">VarBox[11] &#160;in Node: &lt; Application, Lcom/adobe/libs/services/auth/SVServicesAccount, getLatestClientID()Ljava/lang/String; &gt; Context: Everywhere of SVServicesAccount</text>
</g>
<!-- 55&#45;&gt;28 -->
<g id="edge59" class="edge"><title>55&#45;&gt;28</title>
<path fill="none" stroke="black" d="M3984,-1569.94C3984,-1561.81 3984,-1551.88 3984,-1542.7"/>
<polygon fill="black" stroke="black" points="3987.5,-1542.44 3984,-1532.44 3980.5,-1542.44 3987.5,-1542.44"/>
</g>
<!-- 64 -->
<g id="node31" class="node"><title>64</title>
<polygon fill="none" stroke="black" points="2958.96,-1176 2377.04,-1176 2377.04,-1140 2958.96,-1140 2958.96,-1176"/>
<text text-anchor="middle" x="2668" y="-1153.8" font-family="Times,serif" font-size="14.00">ConstBox[value: ims/authorize/v1?client_id=, type: String] declared in showIMSAuthenticationPage</text>
</g>
<!-- 64&#45;&gt;13 -->
<g id="edge68" class="edge"><title>64&#45;&gt;13</title>
<path fill="none" stroke="black" d="M2669.19,-1139.7C2670.27,-1123.92 2671.89,-1100.36 2673.14,-1082.09"/>
<polygon fill="black" stroke="black" points="2676.64,-1082.26 2673.83,-1072.05 2669.65,-1081.78 2676.64,-1082.26"/>
</g>
<!-- 26 -->
<g id="node32" class="node"><title>26</title>
<ellipse fill="none" stroke="black" cx="2638" cy="-650" rx="18" ry="18"/>
<text text-anchor="middle" x="2638" y="-645.8" font-family="Times,serif" font-size="14.00">=</text>
</g>
<!-- 26&#45;&gt;39 -->
<g id="edge30" class="edge"><title>26&#45;&gt;39</title>
<path fill="none" stroke="black" d="M2653.34,-640.37C2677.39,-626.841 2724.74,-600.209 2758.72,-581.095"/>
<polygon fill="black" stroke="black" points="2760.48,-584.119 2767.48,-576.166 2757.05,-578.018 2760.48,-584.119"/>
</g>
<!-- 5&#45;&gt;21 -->
<g id="edge7" class="edge"><title>5&#45;&gt;21</title>
<path fill="none" stroke="black" d="M6563,-821.823C6563,-809.819 6563,-795.081 6563,-782.503"/>
<polygon fill="black" stroke="black" points="6566.5,-782.129 6563,-772.129 6559.5,-782.129 6566.5,-782.129"/>
</g>
<!-- 30&#45;&gt;32 -->
<g id="edge34" class="edge"><title>30&#45;&gt;32</title>
<path fill="none" stroke="black" d="M2750.26,-840.78C2849.44,-828.91 3135.24,-794.705 3314.55,-773.246"/>
<polygon fill="black" stroke="black" points="3315.09,-776.706 3324.6,-772.042 3314.26,-769.756 3315.09,-776.706"/>
</g>
<!-- 61 -->
<g id="node35" class="node"><title>61</title>
<polygon fill="none" stroke="black" points="1416.91,-1532 21.0912,-1532 21.0912,-1496 1416.91,-1496 1416.91,-1532"/>
<text text-anchor="middle" x="719" y="-1509.8" font-family="Times,serif" font-size="14.00">VarBox[6] &#160;in Node: &lt; Application, Lcom/adobe/libs/services/blueheron/SVBlueHeronAPI, getBaseURI(Lcom/adobe/libs/services/blueheron/SVBlueHeronAPI$BASE_URI_TYPE;)Ljava/lang/String; &gt; Context: Everywhere of SVBlueHeronAPI</text>
</g>
<!-- 62 -->
<g id="node49" class="node"><title>62</title>
<ellipse fill="none" stroke="black" cx="719" cy="-1422" rx="18" ry="18"/>
<text text-anchor="middle" x="719" y="-1417.8" font-family="Times,serif" font-size="14.00">=</text>
</g>
<!-- 61&#45;&gt;62 -->
<g id="edge65" class="edge"><title>61&#45;&gt;62</title>
<path fill="none" stroke="black" d="M719,-1495.65C719,-1482.82 719,-1465.11 719,-1450.38"/>
<polygon fill="black" stroke="black" points="722.5,-1450.3 719,-1440.3 715.5,-1450.3 722.5,-1450.3"/>
</g>
<!-- 17 -->
<g id="node36" class="node"><title>17</title>
<polygon fill="none" stroke="black" points="7019.21,-968 6106.79,-968 6106.79,-932 7019.21,-932 7019.21,-968"/>
<text text-anchor="middle" x="6563" y="-945.8" font-family="Times,serif" font-size="14.00">VarBox[4] &#160;in Node: &lt; Primordial, Ljava/lang/Object, clone()Ljava/lang/Object; &gt; Context: JavaTypeContext&lt;point: &lt;Primordial,Ljava/util/Locale&gt;&gt; of Object</text>
</g>
<!-- 17&#45;&gt;5 -->
<g id="edge20" class="edge"><title>17&#45;&gt;5</title>
<path fill="none" stroke="black" d="M6563,-931.697C6563,-917.671 6563,-897.489 6563,-880.344"/>
<polygon fill="black" stroke="black" points="6566.5,-880.143 6563,-870.143 6559.5,-880.143 6566.5,-880.143"/>
<text text-anchor="middle" x="6566.5" y="-902.8" font-family="Times,serif" font-size="14.00">1</text>
</g>
<!-- 17&#45;&gt;4 -->
<g id="edge19" class="edge"><title>17&#45;&gt;4</title>
<path fill="none" stroke="black" d="M6114.09,-968.07C6084.67,-972.724 6063.91,-978.596 6057,-986 6054.43,-988.753 6033.58,-1146.24 6060,-1176 6117.07,-1240.28 6394.34,-1248.21 6491.38,-1249"/>
<polygon fill="black" stroke="black" points="6491.49,-1252.5 6501.51,-1249.06 6491.53,-1245.5 6491.49,-1252.5"/>
<text text-anchor="middle" x="6050.5" y="-1110.8" font-family="Times,serif" font-size="14.00">1</text>
</g>
<!-- 22 -->
<g id="node37" class="node"><title>22</title>
<polygon fill="none" stroke="black" points="6981.21,-1176 6068.79,-1176 6068.79,-1140 6981.21,-1140 6981.21,-1176"/>
<text text-anchor="middle" x="6525" y="-1153.8" font-family="Times,serif" font-size="14.00">VarBox[8] &#160;in Node: &lt; Primordial, Ljava/lang/Object, clone()Ljava/lang/Object; &gt; Context: JavaTypeContext&lt;point: &lt;Primordial,Ljava/util/Locale&gt;&gt; of Object</text>
</g>
<!-- 22&#45;&gt;5 -->
<g id="edge25" class="edge"><title>22&#45;&gt;5</title>
<path fill="none" stroke="black" d="M6409.23,-1139.97C6252.1,-1112.11 6001.34,-1047.93 6098,-932 6153.28,-865.702 6431.7,-850.967 6529.21,-847.82"/>
<polygon fill="black" stroke="black" points="6529.5,-851.313 6539.39,-847.513 6529.29,-844.316 6529.5,-851.313"/>
<text text-anchor="middle" x="6081.5" y="-988.8" font-family="Times,serif" font-size="14.00">3</text>
</g>
<!-- 22&#45;&gt;6 -->
<g id="edge26" class="edge"><title>22&#45;&gt;6</title>
<path fill="none" stroke="black" d="M6531.45,-1139.7C6536.86,-1125.16 6544.74,-1104.01 6551.27,-1086.48"/>
<polygon fill="black" stroke="black" points="6554.72,-1087.25 6554.93,-1076.65 6548.16,-1084.8 6554.72,-1087.25"/>
<text text-anchor="middle" x="6545.5" y="-1110.8" font-family="Times,serif" font-size="14.00">2</text>
</g>
<!-- 4&#45;&gt;22 -->
<g id="edge6" class="edge"><title>4&#45;&gt;22</title>
<path fill="none" stroke="black" d="M6525,-1225.82C6525,-1213.82 6525,-1199.08 6525,-1186.5"/>
<polygon fill="black" stroke="black" points="6528.5,-1186.13 6525,-1176.13 6521.5,-1186.13 6528.5,-1186.13"/>
</g>
<!-- 19 -->
<g id="node39" class="node"><title>19</title>
<ellipse fill="none" stroke="black" cx="3477" cy="-1250" rx="18" ry="18"/>
<text text-anchor="middle" x="3477" y="-1245.8" font-family="Times,serif" font-size="14.00">=</text>
</g>
<!-- 19&#45;&gt;53 -->
<g id="edge22" class="edge"><title>19&#45;&gt;53</title>
<path fill="none" stroke="black" d="M3477,-1231.65C3477,-1218.82 3477,-1201.11 3477,-1186.38"/>
<polygon fill="black" stroke="black" points="3480.5,-1186.3 3477,-1176.3 3473.5,-1186.3 3480.5,-1186.3"/>
</g>
<!-- 33&#45;&gt;37 -->
<g id="edge37" class="edge"><title>33&#45;&gt;37</title>
<path fill="none" stroke="black" d="M3853,-614.204C3853,-604.92 3853,-595.024 3853,-586.213"/>
<polygon fill="black" stroke="black" points="3856.5,-586.117 3853,-576.117 3849.5,-586.117 3856.5,-586.117"/>
</g>
<!-- 42 -->
<g id="node41" class="node"><title>42</title>
<polygon fill="none" stroke="black" points="4743.29,-1360 4246.71,-1360 4246.71,-1324 4743.29,-1324 4743.29,-1360"/>
<text text-anchor="middle" x="4495" y="-1337.8" font-family="Times,serif" font-size="14.00">ConstBox[value: ReaderMobileAndroid1, type: String] declared in getActiveClientID</text>
</g>
<!-- 43 -->
<g id="node44" class="node"><title>43</title>
<ellipse fill="none" stroke="black" cx="4495" cy="-1250" rx="18" ry="18"/>
<text text-anchor="middle" x="4495" y="-1245.8" font-family="Times,serif" font-size="14.00">=</text>
</g>
<!-- 42&#45;&gt;43 -->
<g id="edge46" class="edge"><title>42&#45;&gt;43</title>
<path fill="none" stroke="black" d="M4495,-1323.65C4495,-1310.82 4495,-1293.11 4495,-1278.38"/>
<polygon fill="black" stroke="black" points="4498.5,-1278.3 4495,-1268.3 4491.5,-1278.3 4498.5,-1278.3"/>
</g>
<!-- 60 -->
<g id="node42" class="node"><title>60</title>
<ellipse fill="none" stroke="black" cx="6519" cy="-1588" rx="18" ry="18"/>
<text text-anchor="middle" x="6519" y="-1583.8" font-family="Times,serif" font-size="14.00">=</text>
</g>
<!-- 27 -->
<g id="node63" class="node"><title>27</title>
<polygon fill="none" stroke="black" points="7020.17,-1532 6017.83,-1532 6017.83,-1496 7020.17,-1496 7020.17,-1532"/>
<text text-anchor="middle" x="6519" y="-1509.8" font-family="Times,serif" font-size="14.00">VarBox[31] &#160;in Node: &lt; Primordial, Ljava/util/Locale, toNewString(Ljava/lang/String;Ljava/lang/String;Ljava/lang/String;)Ljava/lang/String; &gt; Context: Everywhere of Locale</text>
</g>
<!-- 60&#45;&gt;27 -->
<g id="edge64" class="edge"><title>60&#45;&gt;27</title>
<path fill="none" stroke="black" d="M6519,-1569.94C6519,-1561.81 6519,-1551.88 6519,-1542.7"/>
<polygon fill="black" stroke="black" points="6522.5,-1542.44 6519,-1532.44 6515.5,-1542.44 6522.5,-1542.44"/>
</g>
<!-- 46 -->
<g id="node43" class="node"><title>46</title>
<ellipse fill="none" stroke="black" cx="719" cy="-1250" rx="18" ry="18"/>
<text text-anchor="middle" x="719" y="-1245.8" font-family="Times,serif" font-size="14.00">=</text>
</g>
<!-- 46&#45;&gt;47 -->
<g id="edge50" class="edge"><title>46&#45;&gt;47</title>
<path fill="none" stroke="black" d="M719,-1231.65C719,-1218.82 719,-1201.11 719,-1186.38"/>
<polygon fill="black" stroke="black" points="722.5,-1186.3 719,-1176.3 715.5,-1186.3 722.5,-1186.3"/>
</g>
<!-- 43&#45;&gt;56 -->
<g id="edge47" class="edge"><title>43&#45;&gt;56</title>
<path fill="none" stroke="black" d="M4495,-1231.65C4495,-1218.82 4495,-1201.11 4495,-1186.38"/>
<polygon fill="black" stroke="black" points="4498.5,-1186.3 4495,-1176.3 4491.5,-1186.3 4498.5,-1186.3"/>
</g>
<!-- 49 -->
<g id="node45" class="node"><title>49</title>
<polygon fill="none" stroke="black" points="1438.15,-1360 -0.147175,-1360 -0.147175,-1324 1438.15,-1324 1438.15,-1360"/>
<text text-anchor="middle" x="719" y="-1337.8" font-family="Times,serif" font-size="14.00">VarBox[5] &#160;in Node: &lt; Application, Lcom/adobe/libs/services/SVCloudNetworkManager, getBaseURIs(Lcom/adobe/libs/services/blueheron/SVBlueHeronAPI$BASE_URI_TYPE;)Ljava/lang/String; &gt; Context: Everywhere of SVCloudNetworkManager</text>
</g>
<!-- 49&#45;&gt;46 -->
<g id="edge53" class="edge"><title>49&#45;&gt;46</title>
<path fill="none" stroke="black" d="M719,-1323.65C719,-1310.82 719,-1293.11 719,-1278.38"/>
<polygon fill="black" stroke="black" points="722.5,-1278.3 719,-1268.3 715.5,-1278.3 722.5,-1278.3"/>
</g>
<!-- 52&#45;&gt;34 -->
<g id="edge56" class="edge"><title>52&#45;&gt;34</title>
<path fill="none" stroke="black" d="M4495,-827.647C4495,-814.823 4495,-797.108 4495,-782.381"/>
<polygon fill="black" stroke="black" points="4498.5,-782.3 4495,-772.3 4491.5,-782.3 4498.5,-782.3"/>
</g>
<!-- 15 -->
<g id="node47" class="node"><title>15</title>
<polygon fill="none" stroke="black" points="1965.15,-1360 1528.85,-1360 1528.85,-1324 1965.15,-1324 1965.15,-1360"/>
<text text-anchor="middle" x="1747" y="-1337.8" font-family="Times,serif" font-size="14.00">ConstBox[value: &quot;&quot;, type: String] declared in showIMSAuthenticationPage</text>
</g>
<!-- 16 -->
<g id="node55" class="node"><title>16</title>
<ellipse fill="none" stroke="black" cx="1747" cy="-1250" rx="18" ry="18"/>
<text text-anchor="middle" x="1747" y="-1245.8" font-family="Times,serif" font-size="14.00">=</text>
</g>
<!-- 15&#45;&gt;16 -->
<g id="edge17" class="edge"><title>15&#45;&gt;16</title>
<path fill="none" stroke="black" d="M1747,-1323.65C1747,-1310.82 1747,-1293.11 1747,-1278.38"/>
<polygon fill="black" stroke="black" points="1750.5,-1278.3 1747,-1268.3 1743.5,-1278.3 1750.5,-1278.3"/>
</g>
<!-- 24 -->
<g id="node48" class="node"><title>24</title>
<ellipse fill="none" stroke="black" cx="7028" cy="-1422" rx="23.2996" ry="23.7293"/>
<text text-anchor="middle" x="7028" y="-1417.8" font-family="Times,serif" font-size="14.00">join</text>
</g>
<!-- 24&#45;&gt;2 -->
<g id="edge28" class="edge"><title>24&#45;&gt;2</title>
<path fill="none" stroke="black" d="M7028,-1398.02C7028,-1389.36 7028,-1379.43 7028,-1370.41"/>
<polygon fill="black" stroke="black" points="7031.5,-1370.37 7028,-1360.37 7024.5,-1370.37 7031.5,-1370.37"/>
</g>
<!-- 62&#45;&gt;49 -->
<g id="edge66" class="edge"><title>62&#45;&gt;49</title>
<path fill="none" stroke="black" d="M719,-1403.69C719,-1393.89 719,-1381.42 719,-1370.33"/>
<polygon fill="black" stroke="black" points="722.5,-1370.26 719,-1360.26 715.5,-1370.26 722.5,-1370.26"/>
</g>
<!-- 45&#45;&gt;1 -->
<g id="edge49" class="edge"><title>45&#45;&gt;1</title>
<path fill="none" stroke="black" d="M4613,-73.937C4613,-65.8072 4613,-55.8761 4613,-46.7047"/>
<polygon fill="black" stroke="black" points="4616.5,-46.4406 4613,-36.4407 4609.5,-46.4407 4616.5,-46.4406"/>
</g>
<!-- 50&#45;&gt;29 -->
<g id="edge54" class="edge"><title>50&#45;&gt;29</title>
<path fill="none" stroke="black" d="M1687,-1018.18C1687,-1005.15 1687,-990.542 1687,-978.285"/>
<polygon fill="black" stroke="black" points="1690.5,-978.218 1687,-968.218 1683.5,-978.218 1690.5,-978.218"/>
</g>
<!-- 10&#45;&gt;51 -->
<g id="edge12" class="edge"><title>10&#45;&gt;51</title>
<path fill="none" stroke="black" d="M5073.34,-439.72C5061.39,-426.106 5042.52,-404.609 5027.8,-387.83"/>
<polygon fill="black" stroke="black" points="5030.17,-385.234 5020.95,-380.027 5024.91,-389.852 5030.17,-385.234"/>
</g>
<!-- 25 -->
<g id="node53" class="node"><title>25</title>
<polygon fill="none" stroke="black" points="2943.46,-772 2278.54,-772 2278.54,-736 2943.46,-736 2943.46,-772"/>
<text text-anchor="middle" x="2611" y="-749.8" font-family="Times,serif" font-size="14.00">ConstBox[value: &amp;scope=AdobeID,openid,skybox&amp;locale=, type: String] declared in showIMSAuthenticationPage</text>
</g>
<!-- 25&#45;&gt;26 -->
<g id="edge29" class="edge"><title>25&#45;&gt;26</title>
<path fill="none" stroke="black" d="M2615.58,-735.697C2619.8,-719.754 2626.13,-695.857 2630.98,-677.508"/>
<polygon fill="black" stroke="black" points="2634.4,-678.272 2633.58,-667.709 2627.63,-676.481 2634.4,-678.272"/>
</g>
<!-- 6&#45;&gt;17 -->
<g id="edge8" class="edge"><title>6&#45;&gt;17</title>
<path fill="none" stroke="black" d="M6563,-1030.11C6563,-1014.84 6563,-994.676 6563,-978.529"/>
<polygon fill="black" stroke="black" points="6566.5,-978.101 6563,-968.101 6559.5,-978.101 6566.5,-978.101"/>
</g>
<!-- 16&#45;&gt;31 -->
<g id="edge18" class="edge"><title>16&#45;&gt;31</title>
<path fill="none" stroke="black" d="M1747,-1231.65C1747,-1218.82 1747,-1201.11 1747,-1186.38"/>
<polygon fill="black" stroke="black" points="1750.5,-1186.3 1747,-1176.3 1743.5,-1186.3 1750.5,-1186.3"/>
</g>
<!-- 7 -->
<g id="node56" class="node"><title>7</title>
<polygon fill="none" stroke="black" points="7705.09,-1680 7372.91,-1680 7372.91,-1644 7705.09,-1644 7705.09,-1680"/>
<text text-anchor="middle" x="7539" y="-1657.8" font-family="Times,serif" font-size="14.00">ConstBox[value: , type: String] declared in toNewString</text>
</g>
<!-- 7&#45;&gt;8 -->
<g id="edge9" class="edge"><title>7&#45;&gt;8</title>
<path fill="none" stroke="black" d="M7539,-1643.94C7539,-1635.81 7539,-1625.88 7539,-1616.7"/>
<polygon fill="black" stroke="black" points="7542.5,-1616.44 7539,-1606.44 7535.5,-1616.44 7542.5,-1616.44"/>
</g>
<!-- 12 -->
<g id="node59" class="node"><title>12</title>
<polygon fill="none" stroke="black" points="3467.09,-1532 2470.91,-1532 2470.91,-1496 3467.09,-1496 3467.09,-1532"/>
<text text-anchor="middle" x="2969" y="-1509.8" font-family="Times,serif" font-size="14.00">VarBox[16] &#160;in Node: &lt; Application, Lcom/adobe/libs/services/auth/SVServicesAccount, getLatestClientID()Ljava/lang/String; &gt; Context: Everywhere of SVServicesAccount</text>
</g>
<!-- 11&#45;&gt;12 -->
<g id="edge13" class="edge"><title>11&#45;&gt;12</title>
<path fill="none" stroke="black" d="M2969,-1569.94C2969,-1561.81 2969,-1551.88 2969,-1542.7"/>
<polygon fill="black" stroke="black" points="2972.5,-1542.44 2969,-1532.44 2965.5,-1542.44 2972.5,-1542.44"/>
</g>
<!-- 18 -->
<g id="node58" class="node"><title>18</title>
<polygon fill="none" stroke="black" points="3975.09,-1360 2978.91,-1360 2978.91,-1324 3975.09,-1324 3975.09,-1360"/>
<text text-anchor="middle" x="3477" y="-1337.8" font-family="Times,serif" font-size="14.00">VarBox[17] &#160;in Node: &lt; Application, Lcom/adobe/libs/services/auth/SVServicesAccount, getLatestClientID()Ljava/lang/String; &gt; Context: Everywhere of SVServicesAccount</text>
</g>
<!-- 18&#45;&gt;19 -->
<g id="edge21" class="edge"><title>18&#45;&gt;19</title>
<path fill="none" stroke="black" d="M3477,-1323.65C3477,-1310.82 3477,-1293.11 3477,-1278.38"/>
<polygon fill="black" stroke="black" points="3480.5,-1278.3 3477,-1268.3 3473.5,-1278.3 3480.5,-1278.3"/>
</g>
<!-- 20 -->
<g id="node66" class="node"><title>20</title>
<ellipse fill="none" stroke="black" cx="3477" cy="-1422" rx="23.2996" ry="23.7293"/>
<text text-anchor="middle" x="3477" y="-1417.8" font-family="Times,serif" font-size="14.00">join</text>
</g>
<!-- 12&#45;&gt;20 -->
<g id="edge14" class="edge"><title>12&#45;&gt;20</title>
<path fill="none" stroke="black" d="M3065.15,-1495.97C3180.81,-1475.48 3368.81,-1442.17 3444.2,-1428.81"/>
<polygon fill="black" stroke="black" points="3444.83,-1432.25 3454.07,-1427.06 3443.61,-1425.36 3444.83,-1432.25"/>
<text text-anchor="middle" x="3242.5" y="-1466.8" font-family="Times,serif" font-size="14.00">2</text>
</g>
<!-- 28&#45;&gt;20 -->
<g id="edge32" class="edge"><title>28&#45;&gt;20</title>
<path fill="none" stroke="black" d="M3888.04,-1495.97C3772.88,-1475.52 3585.87,-1442.33 3510.27,-1428.91"/>
<polygon fill="black" stroke="black" points="3510.82,-1425.45 3500.37,-1427.15 3509.6,-1432.34 3510.82,-1425.45"/>
<text text-anchor="middle" x="3779.5" y="-1466.8" font-family="Times,serif" font-size="14.00">1</text>
</g>
<!-- 58 -->
<g id="node64" class="node"><title>58</title>
<polygon fill="none" stroke="black" points="7019.28,-1828 6018.72,-1828 6018.72,-1792 7019.28,-1792 7019.28,-1828"/>
<text text-anchor="middle" x="6519" y="-1805.8" font-family="Times,serif" font-size="14.00">VarBox[11] &#160;in Node: &lt; Primordial, Ljava/util/Locale, toNewString(Ljava/lang/String;Ljava/lang/String;Ljava/lang/String;)Ljava/lang/String; &gt; Context: Everywhere of Locale</text>
</g>
<!-- 36&#45;&gt;58 -->
<g id="edge40" class="edge"><title>36&#45;&gt;58</title>
<path fill="none" stroke="black" d="M6519,-1865.94C6519,-1857.81 6519,-1847.88 6519,-1838.7"/>
<polygon fill="black" stroke="black" points="6522.5,-1838.44 6519,-1828.44 6515.5,-1838.44 6522.5,-1838.44"/>
</g>
<!-- 23&#45;&gt;24 -->
<g id="edge27" class="edge"><title>23&#45;&gt;24</title>
<path fill="none" stroke="black" d="M7442.28,-1495.97C7325.94,-1475.48 7136.83,-1442.17 7060.99,-1428.81"/>
<polygon fill="black" stroke="black" points="7061.52,-1425.35 7051.06,-1427.06 7060.31,-1432.24 7061.52,-1425.35"/>
<text text-anchor="middle" x="7332.5" y="-1466.8" font-family="Times,serif" font-size="14.00">1</text>
</g>
<!-- 27&#45;&gt;24 -->
<g id="edge31" class="edge"><title>27&#45;&gt;24</title>
<path fill="none" stroke="black" d="M6615.34,-1495.97C6731.22,-1475.48 6919.6,-1442.17 6995.13,-1428.81"/>
<polygon fill="black" stroke="black" points="6995.79,-1432.25 7005.03,-1427.06 6994.57,-1425.36 6995.79,-1432.25"/>
<text text-anchor="middle" x="6791.5" y="-1466.8" font-family="Times,serif" font-size="14.00">2</text>
</g>
<!-- 58&#45;&gt;65 -->
<g id="edge62" class="edge"><title>58&#45;&gt;65</title>
<path fill="none" stroke="black" d="M6519,-1791.94C6519,-1783.81 6519,-1773.88 6519,-1764.7"/>
<polygon fill="black" stroke="black" points="6522.5,-1764.44 6519,-1754.44 6515.5,-1764.44 6522.5,-1764.44"/>
</g>
<!-- 66&#45;&gt;60 -->
<g id="edge70" class="edge"><title>66&#45;&gt;60</title>
<path fill="none" stroke="black" d="M6519,-1643.94C6519,-1635.81 6519,-1625.88 6519,-1616.7"/>
<polygon fill="black" stroke="black" points="6522.5,-1616.44 6519,-1606.44 6515.5,-1616.44 6522.5,-1616.44"/>
</g>
<!-- 20&#45;&gt;18 -->
<g id="edge23" class="edge"><title>20&#45;&gt;18</title>
<path fill="none" stroke="black" d="M3477,-1398.02C3477,-1389.36 3477,-1379.43 3477,-1370.41"/>
<polygon fill="black" stroke="black" points="3480.5,-1370.37 3477,-1360.37 3473.5,-1370.37 3480.5,-1370.37"/>
</g>
</g>
</svg>
